<?xml version="1.0" encoding="UTF-8"?>
<svg xmlns="http://www.w3.org/2000/svg" xmlns:xlink="http://www.w3.org/1999/xlink" width="75pt" height="74.999997pt" viewBox="0 0 75 74.999997" version="1.2">
<defs>
<clipPath id="clip1">
  <path d="M 8.601562 21.511719 L 66.351562 21.511719 L 66.351562 71.25 L 8.601562 71.25 Z M 8.601562 21.511719 "/>
</clipPath>
<clipPath id="clip2">
  <path d="M 20 3.75 L 54 3.75 L 54 35 L 20 35 Z M 20 3.75 "/>
</clipPath>
</defs>
<g id="surface1">
<rect x="0" y="0" width="75" height="74.999997" style="fill:rgb(100%,100%,100%);fill-opacity:1;stroke:none;"/>
<rect x="0" y="0" width="75" height="74.999997" style="fill:rgb(100%,100%,100%);fill-opacity:1;stroke:none;"/>
<rect x="0" y="0" width="75" height="74.999997" style="fill:rgb(5.488586%,5.488586%,5.488586%);fill-opacity:1;stroke:none;"/>
<g clip-path="url(#clip1)" clip-rule="nonzero">
<path style=" stroke:none;fill-rule:nonzero;fill:rgb(100%,100%,100%);fill-opacity:1;" d="M 13.566406 21.570312 L 61.402344 21.570312 C 61.96875 21.570312 62.429688 22.019531 62.453125 22.578125 L 66.351562 70.117188 C 66.398438 70.695312 65.96875 71.207031 65.386719 71.253906 C 65.359375 71.257812 65.328125 71.257812 65.300781 71.257812 L 9.65625 71.257812 C 9.074219 71.257812 8.601562 70.785156 8.601562 70.203125 C 8.601562 70.15625 8.605469 70.113281 8.609375 70.070312 L 12.507812 22.542969 L 13.558594 22.625 L 12.507812 22.539062 C 12.550781 21.984375 13.019531 21.566406 13.566406 21.570312 Z M 60.433594 23.679688 L 14.527344 23.679688 L 10.800781 69.148438 L 64.160156 69.148438 L 60.433594 23.679688 "/>
</g>
<path style=" stroke:none;fill-rule:evenodd;fill:rgb(100%,100%,100%);fill-opacity:1;" d="M 52.867188 30.570312 C 54.003906 30.570312 54.925781 31.492188 54.925781 32.628906 C 54.925781 33.765625 54.003906 34.6875 52.867188 34.6875 C 51.734375 34.6875 50.8125 33.765625 50.8125 32.628906 C 50.8125 31.492188 51.734375 30.570312 52.867188 30.570312 "/>
<path style=" stroke:none;fill-rule:evenodd;fill:rgb(100%,100%,100%);fill-opacity:1;" d="M 22.089844 30.570312 C 23.226562 30.570312 24.148438 31.492188 24.148438 32.628906 C 24.148438 33.765625 23.226562 34.6875 22.089844 34.6875 C 20.953125 34.6875 20.03125 33.765625 20.03125 32.628906 C 20.03125 31.492188 20.953125 30.570312 22.089844 30.570312 "/>
<g clip-path="url(#clip2)" clip-rule="nonzero">
<path style=" stroke:none;fill-rule:nonzero;fill:rgb(100%,100%,100%);fill-opacity:1;" d="M 20.652344 33.460938 C 20.652344 34.042969 21.125 34.515625 21.707031 34.515625 C 22.289062 34.515625 22.761719 34.042969 22.761719 33.460938 C 22.761719 20.074219 26.621094 11.570312 31.5625 7.894531 C 33.390625 6.539062 35.363281 5.859375 37.328125 5.859375 C 39.289062 5.859375 41.261719 6.539062 43.089844 7.894531 C 48.03125 11.570312 51.890625 20.074219 51.890625 33.460938 C 51.890625 34.042969 52.363281 34.515625 52.945312 34.515625 C 53.527344 34.515625 54 34.042969 54 33.460938 C 54 19.335938 49.761719 10.238281 44.339844 6.207031 C 42.136719 4.570312 39.734375 3.75 37.328125 3.75 C 34.917969 3.75 32.515625 4.570312 30.3125 6.207031 C 24.890625 10.238281 20.652344 19.335938 20.652344 33.460938 "/>
</g>
</g>
</svg>
